<mxfile host="app.diagrams.net" modified="2020-10-26T11:49:17.143Z" agent="5.0 (Windows)" etag="DHSVAdZXyJ-V0Ax9bMwC" version="13.8.2" type="github">
  <diagram id="dSVicwE79XVgrETp8B6e" name="Page-1">
    <mxGraphModel dx="740" dy="757" grid="1" gridSize="10" guides="1" tooltips="1" connect="1" arrows="1" fold="1" page="1" pageScale="1" pageWidth="850" pageHeight="1100" math="0" shadow="0">
      <root>
        <mxCell id="0" />
        <mxCell id="1" parent="0" />
        <mxCell id="i36mVi_Hitm2rQLV6lYU-18" style="edgeStyle=orthogonalEdgeStyle;rounded=0;orthogonalLoop=1;jettySize=auto;html=1;strokeWidth=1;" parent="1" source="i36mVi_Hitm2rQLV6lYU-2" edge="1">
          <mxGeometry relative="1" as="geometry">
            <mxPoint x="280" y="220" as="targetPoint" />
          </mxGeometry>
        </mxCell>
        <mxCell id="i36mVi_Hitm2rQLV6lYU-2" value="" style="ellipse;whiteSpace=wrap;html=1;aspect=fixed;" parent="1" vertex="1">
          <mxGeometry x="160" y="200" width="40" height="40" as="geometry" />
        </mxCell>
        <mxCell id="i36mVi_Hitm2rQLV6lYU-23" style="edgeStyle=none;rounded=0;orthogonalLoop=1;jettySize=auto;html=1;strokeWidth=1;" parent="1" source="i36mVi_Hitm2rQLV6lYU-3" edge="1">
          <mxGeometry relative="1" as="geometry">
            <mxPoint x="280" y="460" as="targetPoint" />
          </mxGeometry>
        </mxCell>
        <mxCell id="i36mVi_Hitm2rQLV6lYU-3" value="" style="ellipse;whiteSpace=wrap;html=1;aspect=fixed;" parent="1" vertex="1">
          <mxGeometry x="160" y="440" width="40" height="40" as="geometry" />
        </mxCell>
        <mxCell id="i36mVi_Hitm2rQLV6lYU-24" style="edgeStyle=none;rounded=0;orthogonalLoop=1;jettySize=auto;html=1;strokeWidth=1;" parent="1" source="i36mVi_Hitm2rQLV6lYU-4" edge="1">
          <mxGeometry relative="1" as="geometry">
            <mxPoint x="480" y="460" as="targetPoint" />
          </mxGeometry>
        </mxCell>
        <mxCell id="i36mVi_Hitm2rQLV6lYU-4" value="" style="ellipse;whiteSpace=wrap;html=1;aspect=fixed;" parent="1" vertex="1">
          <mxGeometry x="360" y="440" width="40" height="40" as="geometry" />
        </mxCell>
        <mxCell id="i36mVi_Hitm2rQLV6lYU-20" style="rounded=0;orthogonalLoop=1;jettySize=auto;html=1;strokeWidth=1;strokeColor=none;" parent="1" source="i36mVi_Hitm2rQLV6lYU-5" edge="1">
          <mxGeometry relative="1" as="geometry">
            <mxPoint x="280" y="220" as="targetPoint" />
          </mxGeometry>
        </mxCell>
        <mxCell id="i36mVi_Hitm2rQLV6lYU-21" style="edgeStyle=none;rounded=0;orthogonalLoop=1;jettySize=auto;html=1;strokeWidth=1;" parent="1" source="i36mVi_Hitm2rQLV6lYU-5" edge="1">
          <mxGeometry relative="1" as="geometry">
            <mxPoint x="280" y="220" as="targetPoint" />
          </mxGeometry>
        </mxCell>
        <mxCell id="i36mVi_Hitm2rQLV6lYU-22" style="edgeStyle=none;rounded=0;orthogonalLoop=1;jettySize=auto;html=1;strokeWidth=1;" parent="1" source="i36mVi_Hitm2rQLV6lYU-5" edge="1">
          <mxGeometry relative="1" as="geometry">
            <mxPoint x="280" y="460" as="targetPoint" />
          </mxGeometry>
        </mxCell>
        <mxCell id="i36mVi_Hitm2rQLV6lYU-5" value="" style="ellipse;whiteSpace=wrap;html=1;aspect=fixed;" parent="1" vertex="1">
          <mxGeometry x="360" y="320" width="40" height="40" as="geometry" />
        </mxCell>
        <mxCell id="i36mVi_Hitm2rQLV6lYU-19" style="edgeStyle=orthogonalEdgeStyle;rounded=0;orthogonalLoop=1;jettySize=auto;html=1;strokeWidth=1;" parent="1" source="i36mVi_Hitm2rQLV6lYU-6" edge="1">
          <mxGeometry relative="1" as="geometry">
            <mxPoint x="480" y="220" as="targetPoint" />
          </mxGeometry>
        </mxCell>
        <mxCell id="i36mVi_Hitm2rQLV6lYU-6" value="" style="ellipse;whiteSpace=wrap;html=1;aspect=fixed;" parent="1" vertex="1">
          <mxGeometry x="360" y="200" width="40" height="40" as="geometry" />
        </mxCell>
        <mxCell id="i36mVi_Hitm2rQLV6lYU-26" style="edgeStyle=none;rounded=0;orthogonalLoop=1;jettySize=auto;html=1;strokeWidth=1;" parent="1" edge="1">
          <mxGeometry relative="1" as="geometry">
            <mxPoint x="680" y="215.39" as="targetPoint" />
            <mxPoint x="600" y="215.39" as="sourcePoint" />
          </mxGeometry>
        </mxCell>
        <mxCell id="i36mVi_Hitm2rQLV6lYU-7" value="" style="ellipse;whiteSpace=wrap;html=1;aspect=fixed;" parent="1" vertex="1">
          <mxGeometry x="560" y="200" width="40" height="40" as="geometry" />
        </mxCell>
        <mxCell id="i36mVi_Hitm2rQLV6lYU-25" style="edgeStyle=none;rounded=0;orthogonalLoop=1;jettySize=auto;html=1;strokeWidth=1;" parent="1" edge="1">
          <mxGeometry relative="1" as="geometry">
            <mxPoint x="680" y="464.76" as="targetPoint" />
            <mxPoint x="600" y="464.76" as="sourcePoint" />
          </mxGeometry>
        </mxCell>
        <mxCell id="i36mVi_Hitm2rQLV6lYU-8" value="" style="ellipse;whiteSpace=wrap;html=1;aspect=fixed;" parent="1" vertex="1">
          <mxGeometry x="560" y="440" width="40" height="40" as="geometry" />
        </mxCell>
        <mxCell id="i36mVi_Hitm2rQLV6lYU-9" value="" style="endArrow=none;html=1;strokeWidth=3;" parent="1" edge="1">
          <mxGeometry width="50" height="50" relative="1" as="geometry">
            <mxPoint x="280" y="255" as="sourcePoint" />
            <mxPoint x="280" y="185" as="targetPoint" />
            <Array as="points" />
          </mxGeometry>
        </mxCell>
        <mxCell id="i36mVi_Hitm2rQLV6lYU-13" value="" style="endArrow=none;html=1;strokeWidth=3;" parent="1" edge="1">
          <mxGeometry width="50" height="50" relative="1" as="geometry">
            <mxPoint x="480" y="255" as="sourcePoint" />
            <mxPoint x="480" y="185" as="targetPoint" />
          </mxGeometry>
        </mxCell>
        <mxCell id="i36mVi_Hitm2rQLV6lYU-17" value="" style="endArrow=classic;html=1;strokeWidth=1;noLabel=1;fontColor=none;strokeColor=#FC0000;" parent="1" target="i36mVi_Hitm2rQLV6lYU-2" edge="1">
          <mxGeometry width="50" height="50" relative="1" as="geometry">
            <mxPoint x="80" y="330" as="sourcePoint" />
            <mxPoint x="180" y="310" as="targetPoint" />
          </mxGeometry>
        </mxCell>
        <mxCell id="i36mVi_Hitm2rQLV6lYU-27" style="edgeStyle=none;rounded=0;orthogonalLoop=1;jettySize=auto;html=1;strokeWidth=1;strokeColor=#FC0000;" parent="1" edge="1">
          <mxGeometry relative="1" as="geometry">
            <mxPoint x="760" y="330" as="targetPoint" />
            <mxPoint x="680" y="220" as="sourcePoint" />
          </mxGeometry>
        </mxCell>
        <mxCell id="i36mVi_Hitm2rQLV6lYU-28" style="edgeStyle=none;rounded=0;orthogonalLoop=1;jettySize=auto;html=1;strokeWidth=1;strokeColor=#FC0000;" parent="1" edge="1">
          <mxGeometry relative="1" as="geometry">
            <mxPoint x="760" y="350" as="targetPoint" />
            <mxPoint x="680" y="460" as="sourcePoint" />
          </mxGeometry>
        </mxCell>
        <mxCell id="i36mVi_Hitm2rQLV6lYU-29" style="edgeStyle=none;rounded=0;orthogonalLoop=1;jettySize=auto;html=1;strokeWidth=1;noLabel=1;fontColor=none;strokeColor=#FC0000;" parent="1" edge="1">
          <mxGeometry relative="1" as="geometry">
            <mxPoint x="160" y="460" as="targetPoint" />
            <mxPoint x="80" y="350" as="sourcePoint" />
          </mxGeometry>
        </mxCell>
        <mxCell id="i36mVi_Hitm2rQLV6lYU-30" style="edgeStyle=orthogonalEdgeStyle;rounded=0;orthogonalLoop=1;jettySize=auto;html=1;strokeWidth=1;strokeColor=#FC0000;" parent="1" edge="1">
          <mxGeometry relative="1" as="geometry">
            <mxPoint x="560" y="195" as="targetPoint" />
            <mxPoint x="480" y="195" as="sourcePoint" />
          </mxGeometry>
        </mxCell>
        <mxCell id="i36mVi_Hitm2rQLV6lYU-31" style="edgeStyle=none;rounded=0;orthogonalLoop=1;jettySize=auto;html=1;strokeWidth=1;" parent="1" edge="1">
          <mxGeometry relative="1" as="geometry">
            <mxPoint x="560" y="459.41" as="targetPoint" />
            <mxPoint x="480" y="459.41" as="sourcePoint" />
          </mxGeometry>
        </mxCell>
        <mxCell id="i36mVi_Hitm2rQLV6lYU-32" style="edgeStyle=orthogonalEdgeStyle;rounded=0;orthogonalLoop=1;jettySize=auto;html=1;strokeWidth=1;" parent="1" edge="1">
          <mxGeometry relative="1" as="geometry">
            <mxPoint x="360" y="219.41" as="targetPoint" />
            <mxPoint x="280" y="219.41" as="sourcePoint" />
          </mxGeometry>
        </mxCell>
        <mxCell id="i36mVi_Hitm2rQLV6lYU-33" style="edgeStyle=none;rounded=0;orthogonalLoop=1;jettySize=auto;html=1;strokeWidth=1;" parent="1" edge="1">
          <mxGeometry relative="1" as="geometry">
            <mxPoint x="360" y="459.41" as="targetPoint" />
            <mxPoint x="280" y="459.41" as="sourcePoint" />
          </mxGeometry>
        </mxCell>
        <mxCell id="i36mVi_Hitm2rQLV6lYU-34" style="edgeStyle=orthogonalEdgeStyle;rounded=0;orthogonalLoop=1;jettySize=auto;html=1;strokeWidth=1;strokeColor=#FC0000;" parent="1" edge="1">
          <mxGeometry relative="1" as="geometry">
            <mxPoint x="560" y="205" as="targetPoint" />
            <mxPoint x="480" y="205" as="sourcePoint" />
          </mxGeometry>
        </mxCell>
        <mxCell id="i36mVi_Hitm2rQLV6lYU-35" style="edgeStyle=orthogonalEdgeStyle;rounded=0;orthogonalLoop=1;jettySize=auto;html=1;strokeWidth=1;strokeColor=#FC0000;" parent="1" edge="1">
          <mxGeometry relative="1" as="geometry">
            <mxPoint x="560" y="224.8" as="targetPoint" />
            <mxPoint x="480" y="224.8" as="sourcePoint" />
          </mxGeometry>
        </mxCell>
        <mxCell id="i36mVi_Hitm2rQLV6lYU-36" style="edgeStyle=orthogonalEdgeStyle;rounded=0;orthogonalLoop=1;jettySize=auto;html=1;strokeWidth=1;" parent="1" edge="1">
          <mxGeometry relative="1" as="geometry">
            <mxPoint x="560" y="214.99999999999994" as="targetPoint" />
            <mxPoint x="480" y="214.99999999999994" as="sourcePoint" />
          </mxGeometry>
        </mxCell>
        <mxCell id="i36mVi_Hitm2rQLV6lYU-37" style="edgeStyle=orthogonalEdgeStyle;rounded=0;orthogonalLoop=1;jettySize=auto;html=1;strokeWidth=1;strokeColor=#FC0000;" parent="1" edge="1">
          <mxGeometry relative="1" as="geometry">
            <mxPoint x="560" y="234.99999999999994" as="targetPoint" />
            <mxPoint x="480" y="234.99999999999994" as="sourcePoint" />
          </mxGeometry>
        </mxCell>
        <mxCell id="i36mVi_Hitm2rQLV6lYU-38" style="edgeStyle=orthogonalEdgeStyle;rounded=0;orthogonalLoop=1;jettySize=auto;html=1;strokeWidth=1;strokeColor=#FC0000;" parent="1" edge="1">
          <mxGeometry relative="1" as="geometry">
            <mxPoint x="560" y="244.6" as="targetPoint" />
            <mxPoint x="480" y="244.6" as="sourcePoint" />
          </mxGeometry>
        </mxCell>
        <mxCell id="i36mVi_Hitm2rQLV6lYU-39" value="" style="ellipse;whiteSpace=wrap;html=1;aspect=fixed;strokeColor=none;fillColor=#000000;" parent="1" vertex="1">
          <mxGeometry x="373" y="332.5" width="5" height="5" as="geometry" />
        </mxCell>
        <mxCell id="i36mVi_Hitm2rQLV6lYU-40" value="" style="ellipse;whiteSpace=wrap;html=1;aspect=fixed;strokeColor=none;fillColor=#000000;" parent="1" vertex="1">
          <mxGeometry x="373" y="345" width="5" height="5" as="geometry" />
        </mxCell>
        <mxCell id="i36mVi_Hitm2rQLV6lYU-41" value="" style="ellipse;whiteSpace=wrap;html=1;aspect=fixed;strokeColor=none;fillColor=#000000;" parent="1" vertex="1">
          <mxGeometry x="388" y="337.5" width="5" height="5" as="geometry" />
        </mxCell>
        <mxCell id="i36mVi_Hitm2rQLV6lYU-42" value="" style="endArrow=none;html=1;strokeWidth=3;noLabel=1;fontColor=none;strokeColor=#FC0000;" parent="1" edge="1">
          <mxGeometry width="50" height="50" relative="1" as="geometry">
            <mxPoint x="80" y="375" as="sourcePoint" />
            <mxPoint x="80" y="305" as="targetPoint" />
            <Array as="points" />
          </mxGeometry>
        </mxCell>
        <mxCell id="i36mVi_Hitm2rQLV6lYU-43" value="" style="endArrow=none;html=1;strokeWidth=3;" parent="1" edge="1">
          <mxGeometry width="50" height="50" relative="1" as="geometry">
            <mxPoint x="680" y="255" as="sourcePoint" />
            <mxPoint x="680" y="185" as="targetPoint" />
          </mxGeometry>
        </mxCell>
        <mxCell id="i36mVi_Hitm2rQLV6lYU-44" value="" style="endArrow=none;html=1;strokeWidth=3;strokeColor=#FC0000;" parent="1" edge="1">
          <mxGeometry width="50" height="50" relative="1" as="geometry">
            <mxPoint x="760" y="375" as="sourcePoint" />
            <mxPoint x="760" y="305" as="targetPoint" />
          </mxGeometry>
        </mxCell>
        <mxCell id="i36mVi_Hitm2rQLV6lYU-45" value="" style="endArrow=none;html=1;strokeWidth=3;" parent="1" edge="1">
          <mxGeometry width="50" height="50" relative="1" as="geometry">
            <mxPoint x="680" y="495" as="sourcePoint" />
            <mxPoint x="680" y="425" as="targetPoint" />
          </mxGeometry>
        </mxCell>
        <mxCell id="i36mVi_Hitm2rQLV6lYU-46" value="" style="endArrow=none;html=1;strokeWidth=3;" parent="1" edge="1">
          <mxGeometry width="50" height="50" relative="1" as="geometry">
            <mxPoint x="480" y="495" as="sourcePoint" />
            <mxPoint x="480" y="425" as="targetPoint" />
          </mxGeometry>
        </mxCell>
        <mxCell id="i36mVi_Hitm2rQLV6lYU-47" value="" style="endArrow=none;html=1;strokeWidth=3;" parent="1" edge="1">
          <mxGeometry width="50" height="50" relative="1" as="geometry">
            <mxPoint x="280" y="495" as="sourcePoint" />
            <mxPoint x="280" y="425" as="targetPoint" />
          </mxGeometry>
        </mxCell>
        <mxCell id="i36mVi_Hitm2rQLV6lYU-48" value="Paquetes esperando para ser sellados" style="text;html=1;strokeColor=none;fillColor=none;align=left;verticalAlign=middle;whiteSpace=wrap;rounded=0;fontSize=11;" parent="1" vertex="1">
          <mxGeometry x="160" y="410" width="110" height="30" as="geometry" />
        </mxCell>
        <mxCell id="i36mVi_Hitm2rQLV6lYU-49" value="Llegan los pedidos" style="text;html=1;strokeColor=none;fillColor=none;align=left;verticalAlign=middle;whiteSpace=wrap;rounded=0;fontSize=11;fontColor=#FC0000;" parent="1" vertex="1">
          <mxGeometry x="90" y="330" width="110" height="20" as="geometry" />
        </mxCell>
        <mxCell id="i36mVi_Hitm2rQLV6lYU-50" value="Cartas esperando para ser selladas" style="text;html=1;strokeColor=none;fillColor=none;align=left;verticalAlign=middle;whiteSpace=wrap;rounded=0;fontSize=11;" parent="1" vertex="1">
          <mxGeometry x="160" y="250" width="110" height="30" as="geometry" />
        </mxCell>
        <mxCell id="i36mVi_Hitm2rQLV6lYU-51" value="&lt;div&gt;Termina de sellar&lt;/div&gt;&lt;div&gt;el paquete&lt;/div&gt;" style="text;html=1;strokeColor=none;fillColor=none;align=center;verticalAlign=middle;whiteSpace=wrap;rounded=0;fontSize=11;" parent="1" vertex="1">
          <mxGeometry x="430" y="390" width="100" height="30" as="geometry" />
        </mxCell>
        <mxCell id="i36mVi_Hitm2rQLV6lYU-52" value="&lt;div&gt;Ingresa el paquete&lt;/div&gt;&lt;div&gt;para sellar&lt;br&gt;&lt;/div&gt;" style="text;html=1;strokeColor=none;fillColor=none;align=center;verticalAlign=middle;whiteSpace=wrap;rounded=0;fontSize=11;" parent="1" vertex="1">
          <mxGeometry x="230" y="500" width="100" height="30" as="geometry" />
        </mxCell>
        <mxCell id="i36mVi_Hitm2rQLV6lYU-53" value="&lt;div&gt;Ingresa la carta&lt;/div&gt;&lt;div&gt;a sellar&lt;br&gt;&lt;/div&gt;" style="text;html=1;strokeColor=none;fillColor=none;align=center;verticalAlign=middle;whiteSpace=wrap;rounded=0;fontSize=11;" parent="1" vertex="1">
          <mxGeometry x="230" y="150" width="100" height="30" as="geometry" />
        </mxCell>
        <mxCell id="i36mVi_Hitm2rQLV6lYU-54" value="&lt;div&gt;Sellando&lt;/div&gt;&lt;div&gt;el paquete&lt;br&gt;&lt;/div&gt;" style="text;html=1;strokeColor=none;fillColor=none;align=center;verticalAlign=middle;whiteSpace=wrap;rounded=0;fontSize=11;" parent="1" vertex="1">
          <mxGeometry x="350" y="490" width="60" height="30" as="geometry" />
        </mxCell>
        <mxCell id="i36mVi_Hitm2rQLV6lYU-55" value="&lt;div&gt;Sale un grupo de cartas&lt;/div&gt;&lt;div&gt;al depósito&lt;/div&gt;" style="text;html=1;strokeColor=none;fillColor=none;align=center;verticalAlign=middle;whiteSpace=wrap;rounded=0;fontSize=11;fontColor=#00CC00;" parent="1" vertex="1">
          <mxGeometry x="640" y="140" width="80" height="30" as="geometry" />
        </mxCell>
        <mxCell id="i36mVi_Hitm2rQLV6lYU-56" value="Termina de sellar la carta" style="text;html=1;strokeColor=none;fillColor=none;align=center;verticalAlign=middle;whiteSpace=wrap;rounded=0;fontSize=11;" parent="1" vertex="1">
          <mxGeometry x="440" y="150" width="80" height="30" as="geometry" />
        </mxCell>
        <mxCell id="i36mVi_Hitm2rQLV6lYU-57" style="edgeStyle=none;rounded=0;orthogonalLoop=1;jettySize=auto;html=1;strokeWidth=1;strokeColor=#00CC00;" parent="1" target="i36mVi_Hitm2rQLV6lYU-5" edge="1">
          <mxGeometry relative="1" as="geometry">
            <mxPoint x="393" y="320" as="targetPoint" />
            <mxPoint x="480.2596044905449" y="215.41694918791188" as="sourcePoint" />
          </mxGeometry>
        </mxCell>
        <mxCell id="i36mVi_Hitm2rQLV6lYU-58" style="edgeStyle=none;rounded=0;orthogonalLoop=1;jettySize=auto;html=1;strokeWidth=1;strokeColor=#00CC00;" parent="1" target="i36mVi_Hitm2rQLV6lYU-5" edge="1">
          <mxGeometry relative="1" as="geometry">
            <mxPoint x="402.5448295874612" y="334.4235032622355" as="targetPoint" />
            <mxPoint x="480" y="460" as="sourcePoint" />
          </mxGeometry>
        </mxCell>
        <mxCell id="i36mVi_Hitm2rQLV6lYU-59" value="" style="endArrow=none;html=1;strokeWidth=3;strokeColor=#00CC00;" parent="1" edge="1">
          <mxGeometry width="50" height="50" relative="1" as="geometry">
            <mxPoint x="80" y="495" as="sourcePoint" />
            <mxPoint x="80" y="425" as="targetPoint" />
          </mxGeometry>
        </mxCell>
        <mxCell id="i36mVi_Hitm2rQLV6lYU-60" style="edgeStyle=none;rounded=0;orthogonalLoop=1;jettySize=auto;html=1;strokeWidth=1;strokeColor=#00CC00;" parent="1" edge="1">
          <mxGeometry relative="1" as="geometry">
            <mxPoint x="160" y="459.4100000000001" as="targetPoint" />
            <mxPoint x="80" y="459.4100000000001" as="sourcePoint" />
          </mxGeometry>
        </mxCell>
        <mxCell id="i36mVi_Hitm2rQLV6lYU-61" value="" style="endArrow=none;html=1;strokeWidth=3;strokeColor=#00CC00;" parent="1" edge="1">
          <mxGeometry width="50" height="50" relative="1" as="geometry">
            <mxPoint x="80" y="255.0000000000001" as="sourcePoint" />
            <mxPoint x="80" y="185" as="targetPoint" />
            <Array as="points" />
          </mxGeometry>
        </mxCell>
        <mxCell id="i36mVi_Hitm2rQLV6lYU-62" style="edgeStyle=orthogonalEdgeStyle;rounded=0;orthogonalLoop=1;jettySize=auto;html=1;strokeWidth=1;strokeColor=#00CC00;" parent="1" edge="1">
          <mxGeometry relative="1" as="geometry">
            <mxPoint x="160" y="219.40999999999997" as="targetPoint" />
            <mxPoint x="80" y="219.40999999999997" as="sourcePoint" />
          </mxGeometry>
        </mxCell>
        <mxCell id="i36mVi_Hitm2rQLV6lYU-63" style="edgeStyle=orthogonalEdgeStyle;rounded=0;orthogonalLoop=1;jettySize=auto;html=1;strokeWidth=1;strokeColor=#00CC00;" parent="1" edge="1">
          <mxGeometry relative="1" as="geometry">
            <mxPoint x="680" y="224.75999999999982" as="targetPoint" />
            <mxPoint x="600.0000000000001" y="224.75999999999982" as="sourcePoint" />
          </mxGeometry>
        </mxCell>
        <mxCell id="i36mVi_Hitm2rQLV6lYU-64" style="edgeStyle=orthogonalEdgeStyle;rounded=0;orthogonalLoop=1;jettySize=auto;html=1;strokeWidth=1;strokeColor=#00CC00;" parent="1" edge="1">
          <mxGeometry relative="1" as="geometry">
            <mxPoint x="680" y="234.9600000000001" as="targetPoint" />
            <mxPoint x="600.0000000000001" y="234.9600000000001" as="sourcePoint" />
          </mxGeometry>
        </mxCell>
        <mxCell id="i36mVi_Hitm2rQLV6lYU-65" style="edgeStyle=orthogonalEdgeStyle;rounded=0;orthogonalLoop=1;jettySize=auto;html=1;strokeWidth=1;strokeColor=#00CC00;" parent="1" edge="1">
          <mxGeometry relative="1" as="geometry">
            <mxPoint x="680" y="244.56" as="targetPoint" />
            <mxPoint x="600.0000000000001" y="244.56" as="sourcePoint" />
          </mxGeometry>
        </mxCell>
        <mxCell id="i36mVi_Hitm2rQLV6lYU-66" style="edgeStyle=orthogonalEdgeStyle;rounded=0;orthogonalLoop=1;jettySize=auto;html=1;strokeWidth=1;strokeColor=#00CC00;" parent="1" edge="1">
          <mxGeometry relative="1" as="geometry">
            <mxPoint x="680" y="204.95999999999998" as="targetPoint" />
            <mxPoint x="600.0000000000001" y="204.95999999999998" as="sourcePoint" />
          </mxGeometry>
        </mxCell>
        <mxCell id="i36mVi_Hitm2rQLV6lYU-67" style="edgeStyle=orthogonalEdgeStyle;rounded=0;orthogonalLoop=1;jettySize=auto;html=1;strokeWidth=1;strokeColor=#00CC00;" parent="1" edge="1">
          <mxGeometry relative="1" as="geometry">
            <mxPoint x="680" y="194.95999999999998" as="targetPoint" />
            <mxPoint x="600.0000000000001" y="194.95999999999998" as="sourcePoint" />
          </mxGeometry>
        </mxCell>
        <mxCell id="i36mVi_Hitm2rQLV6lYU-68" value="&lt;div&gt;Sellando&lt;/div&gt;&lt;div&gt;el paquete&lt;br&gt;&lt;/div&gt;" style="text;html=1;strokeColor=none;fillColor=none;align=center;verticalAlign=middle;whiteSpace=wrap;rounded=0;fontSize=11;" parent="1" vertex="1">
          <mxGeometry x="350" y="250" width="60" height="30" as="geometry" />
        </mxCell>
        <mxCell id="i36mVi_Hitm2rQLV6lYU-69" style="edgeStyle=orthogonalEdgeStyle;rounded=0;orthogonalLoop=1;jettySize=auto;html=1;strokeWidth=1;" parent="1" edge="1">
          <mxGeometry relative="1" as="geometry">
            <mxPoint x="680" y="454.75999999999993" as="targetPoint" />
            <mxPoint x="600.0000000000001" y="454.75999999999993" as="sourcePoint" />
          </mxGeometry>
        </mxCell>
        <mxCell id="i36mVi_Hitm2rQLV6lYU-71" value="Se carga el camión" style="text;html=1;strokeColor=none;fillColor=none;align=left;verticalAlign=middle;whiteSpace=wrap;rounded=0;fontSize=11;fontColor=#00CC00;" parent="1" vertex="1">
          <mxGeometry x="910" y="325" width="80" height="30" as="geometry" />
        </mxCell>
        <mxCell id="i36mVi_Hitm2rQLV6lYU-72" value="&lt;div&gt;Sale un grupo&lt;/div&gt;&lt;div&gt;de paquetes&lt;br&gt;&lt;/div&gt;&lt;div&gt;al depósito&lt;/div&gt;" style="text;html=1;strokeColor=none;fillColor=none;align=center;verticalAlign=middle;whiteSpace=wrap;rounded=0;fontSize=11;fontColor=#00CC00;" parent="1" vertex="1">
          <mxGeometry x="630" y="500" width="100" height="30" as="geometry" />
        </mxCell>
        <mxCell id="i36mVi_Hitm2rQLV6lYU-73" value="Empleado listo" style="text;html=1;strokeColor=none;fillColor=none;align=left;verticalAlign=middle;whiteSpace=wrap;rounded=0;fontSize=11;fontColor=#00CC00;" parent="1" vertex="1">
          <mxGeometry x="410" y="325" width="100" height="30" as="geometry" />
        </mxCell>
        <mxCell id="i36mVi_Hitm2rQLV6lYU-75" value="Llegan paquetes" style="text;html=1;strokeColor=none;fillColor=none;align=center;verticalAlign=middle;whiteSpace=wrap;rounded=0;fontSize=11;fontColor=#00CC00;" parent="1" vertex="1">
          <mxGeometry x="30" y="500" width="100" height="30" as="geometry" />
        </mxCell>
        <mxCell id="i36mVi_Hitm2rQLV6lYU-76" value="Llegan cartas" style="text;html=1;strokeColor=none;fillColor=none;align=center;verticalAlign=middle;whiteSpace=wrap;rounded=0;fontSize=11;fontColor=#00CC00;" parent="1" vertex="1">
          <mxGeometry x="30" y="150" width="100" height="30" as="geometry" />
        </mxCell>
        <mxCell id="i36mVi_Hitm2rQLV6lYU-77" value="Agrupando paquetes" style="text;html=1;strokeColor=none;fillColor=none;align=center;verticalAlign=middle;whiteSpace=wrap;rounded=0;fontSize=11;fontColor=#00CC00;" parent="1" vertex="1">
          <mxGeometry x="530" y="400" width="100" height="30" as="geometry" />
        </mxCell>
        <mxCell id="i36mVi_Hitm2rQLV6lYU-79" value="Agrupando cartas" style="text;html=1;strokeColor=none;fillColor=none;align=center;verticalAlign=middle;whiteSpace=wrap;rounded=0;fontSize=11;fontColor=#00CC00;" parent="1" vertex="1">
          <mxGeometry x="530" y="160" width="100" height="30" as="geometry" />
        </mxCell>
        <mxCell id="i36mVi_Hitm2rQLV6lYU-81" value="" style="endArrow=none;html=1;strokeWidth=3;strokeColor=#00CC00;" parent="1" edge="1">
          <mxGeometry width="50" height="50" relative="1" as="geometry">
            <mxPoint x="900" y="375.0000000000001" as="sourcePoint" />
            <mxPoint x="900" y="305.0000000000001" as="targetPoint" />
          </mxGeometry>
        </mxCell>
        <mxCell id="i36mVi_Hitm2rQLV6lYU-82" value="" style="ellipse;whiteSpace=wrap;html=1;aspect=fixed;strokeColor=#00CC00;" parent="1" vertex="1">
          <mxGeometry x="780" y="320" width="40" height="40" as="geometry" />
        </mxCell>
        <mxCell id="i36mVi_Hitm2rQLV6lYU-83" style="edgeStyle=none;rounded=0;orthogonalLoop=1;jettySize=auto;html=1;strokeWidth=1;strokeColor=#00CC00;" parent="1" target="i36mVi_Hitm2rQLV6lYU-82" edge="1">
          <mxGeometry relative="1" as="geometry">
            <mxPoint x="770" y="360.0000000000001" as="targetPoint" />
            <mxPoint x="680" y="460" as="sourcePoint" />
          </mxGeometry>
        </mxCell>
        <mxCell id="i36mVi_Hitm2rQLV6lYU-84" style="edgeStyle=none;rounded=0;orthogonalLoop=1;jettySize=auto;html=1;strokeWidth=1;strokeColor=#00CC00;" parent="1" target="i36mVi_Hitm2rQLV6lYU-82" edge="1">
          <mxGeometry relative="1" as="geometry">
            <mxPoint x="795.8578643762603" y="364.1421356237398" as="targetPoint" />
            <mxPoint x="680" y="220" as="sourcePoint" />
          </mxGeometry>
        </mxCell>
        <mxCell id="i36mVi_Hitm2rQLV6lYU-85" style="edgeStyle=none;rounded=0;orthogonalLoop=1;jettySize=auto;html=1;strokeWidth=1;strokeColor=#00CC00;" parent="1" edge="1">
          <mxGeometry relative="1" as="geometry">
            <mxPoint x="900.0000000000001" y="340" as="targetPoint" />
            <mxPoint x="819.9999999999999" y="340" as="sourcePoint" />
          </mxGeometry>
        </mxCell>
        <mxCell id="i36mVi_Hitm2rQLV6lYU-87" value="&lt;div&gt;Grupos&lt;/div&gt;&lt;div&gt;en el depósito&lt;/div&gt;" style="text;html=1;strokeColor=none;fillColor=none;align=left;verticalAlign=middle;whiteSpace=wrap;rounded=0;fontSize=11;fontColor=#00CC00;" parent="1" vertex="1">
          <mxGeometry x="780" y="370" width="80" height="30" as="geometry" />
        </mxCell>
      </root>
    </mxGraphModel>
  </diagram>
</mxfile>
